<?xml version="1.0" encoding="UTF-8"?>
<svg id="Layer_2" data-name="Layer 2" xmlns="http://www.w3.org/2000/svg" viewBox="0 0 1351.08 324.64">
  <g id="Layer_1-2" data-name="Layer 1">
    <g>
      <rect x="342.42" y="168.99" width="324.64" height="155.65"/>
      <path d="M1351.08,161.8c0,88.71-71.91,160.61-160.61,160.61s-160.61-71.9-160.61-160.61S1101.76,1.19,1190.47,1.19s160.61,71.9,160.61,160.61"/>
      <path d="M684.86,324.64V0h175.66c78.08,0,149.31,87.23,149.31,162.31-.02,80.38-76.6,162.33-158.2,162.33h-166.77Z"/>
      <path d="M151.2,0c7.77,93.26,78.47,166.52,173.44,168.99v148.98l-6.67,6.67H6.66l-6.66-6.67V0h151.2Z"/>
      <path d="M667.07,0c-26.75,197.66-297.89,197.66-324.64,0h324.64Z"/>
    </g>
  </g>
</svg>